# xmcd
#
# Track frame offsets: 
#        150
#        15492
#        34103
#        52658
#        72389
#        87291
#        101480
#        122074
#        139315
#        157105
#
# Disc length: 2271 seconds
#
# Revision: 0
# Processed by: cddbd v1.5.2PL0 Copyright (c) Steve Scherf et al.
# Submitted via: ExactAudioCopy v1.3
#
DISCID=7f08dd0a
DTITLE=Jason Marks - Slow-Down
DYEAR=2008
DGENRE=Country
TTITLE0=Whiskey's Advice
TTITLE1=Bottle of Wine
TTITLE2=Slow-Down
TTITLE3=Too Tennessee
TTITLE4=She Could Take Me
TTITLE5=The Key
TTITLE6=Between the Lines
TTITLE7=Buzz Song!!!
TTITLE8=Light My Way
TTITLE9=Cornbread Samurai
EXTD=
EXTT0=
EXTT1=
EXTT2=
EXTT3=
EXTT4=
EXTT5=
EXTT6=
EXTT7=
EXTT8=
EXTT9=
PLAYORDER=
